<svg width="20" height="20" viewBox="0 0 20 20" fill="none" xmlns="http://www.w3.org/2000/svg">
<path fill-rule="evenodd" clip-rule="evenodd" d="M9.79962 3.5293H2.77703C1.54918 3.5293 0.554688 4.58375 0.554688 5.88266V17.6472C0.554688 18.9473 1.54918 20.0006 2.77703 20.0006H14.9999C16.2277 20.0006 17.2222 18.9473 17.2222 17.6472V9.03603L12.8731 13.6405C12.4933 14.0466 11.9987 14.3273 11.4553 14.445L8.47622 15.0761C6.53167 15.4872 4.81825 13.6728 5.20716 11.615L5.80274 8.46047C5.91053 7.89157 6.17499 7.36823 6.56278 6.95823L9.79962 3.5293Z" fill="url(#paint0_linear_662_26944)"/>
<path fill-rule="evenodd" clip-rule="evenodd" d="M19.2735 1.4634C19.1612 1.17898 18.9965 0.918172 18.7879 0.694499C18.5829 0.475751 18.3357 0.300756 18.0612 0.180049C17.7908 0.0613101 17.4987 0 17.2034 0C16.9081 0 16.616 0.0613101 16.3456 0.180049C16.0711 0.300756 15.8239 0.475751 15.6189 0.694499L15.0122 1.33673L18.1812 4.69233L18.7879 4.04899C18.9987 3.82701 19.1637 3.56575 19.2735 3.28009C19.5024 2.69615 19.5024 2.04733 19.2735 1.4634ZM16.6112 6.35568L13.441 2.99897L8.13293 8.62126C8.05462 8.7047 8.0018 8.80879 7.9807 8.92127L7.38511 12.0769C7.30733 12.488 7.65068 12.8502 8.03848 12.768L11.0186 12.138C11.1271 12.1138 11.2258 12.0577 11.302 11.9769L16.6112 6.35568Z" fill="url(#paint1_linear_662_26944)"/>
<defs>
<linearGradient id="paint0_linear_662_26944" x1="8.88846" y1="3.5293" x2="8.88846" y2="20.0006" gradientUnits="userSpaceOnUse">
<stop stop-color="white" stop-opacity="0.4"/>
<stop offset="1" stop-color="white"/>
</linearGradient>
<linearGradient id="paint1_linear_662_26944" x1="13.4096" y1="0" x2="13.4096" y2="12.7797" gradientUnits="userSpaceOnUse">
<stop stop-color="white" stop-opacity="0.4"/>
<stop offset="1" stop-color="white"/>
</linearGradient>
</defs>
</svg>
