<svg width="20" height="20" viewBox="0 0 20 20" fill="none" xmlns="http://www.w3.org/2000/svg">
<path d="M5.69861 17.4539C5.61933 17.408 5.53178 17.3781 5.44095 17.366C5.35013 17.354 5.25781 17.3599 5.16927 17.3834C5.08073 17.407 4.99771 17.4478 4.92493 17.5035C4.85215 17.5592 4.79106 17.6286 4.74512 17.7079C4.69919 17.7872 4.66933 17.8747 4.65723 17.9656C4.64513 18.0564 4.65105 18.1487 4.67463 18.2372C4.69821 18.3258 4.739 18.4088 4.79467 18.4816C4.85034 18.5544 4.9198 18.6155 4.99908 18.6614L5.69861 17.4539ZM1.33861 15C1.38263 15.0827 1.44285 15.1556 1.51566 15.2145C1.58847 15.2734 1.6724 15.317 1.76244 15.3428C1.85248 15.3686 1.94678 15.376 2.03973 15.3645C2.13268 15.353 2.22237 15.323 2.30346 15.2761C2.38455 15.2293 2.45538 15.1666 2.51172 15.0918C2.56806 15.017 2.60876 14.9316 2.6314 14.8407C2.65404 14.7498 2.65815 14.6553 2.64349 14.5628C2.62882 14.4703 2.59569 14.3817 2.54606 14.3023L1.33861 15ZM18.6047 9.99999C18.6047 12.2821 17.6981 14.4707 16.0844 16.0844C14.4707 17.6981 12.2821 18.6046 10 18.6046V20C15.5228 20 20 15.5228 20 9.99999H18.6047ZM1.39536 9.99999C1.39536 7.7179 2.30192 5.52927 3.9156 3.91559C5.52929 2.30191 7.71791 1.39535 10 1.39535V0C4.47722 0 1.04657e-05 4.47721 1.04657e-05 9.99999H1.39536ZM13.2558 12.093C11.8372 12.093 10.4767 11.5295 9.47362 10.5264C8.47052 9.52328 7.90698 8.16278 7.90698 6.74418H6.51163C6.51163 8.53285 7.22218 10.2483 8.48696 11.513C9.75174 12.7778 11.4671 13.4884 13.2558 13.4884V12.093ZM17.8372 9.50604C17.3612 10.2955 16.6893 10.9485 15.8866 11.4018C15.0839 11.855 14.1777 12.0931 13.2558 12.093V13.4884C14.418 13.4887 15.5606 13.1887 16.5728 12.6174C17.5849 12.0462 18.4322 11.2231 19.0326 10.2279L17.8372 9.50604ZM7.90698 6.74418C7.90685 5.82235 8.14497 4.91612 8.59823 4.11342C9.05149 3.31071 9.70452 2.63878 10.494 2.16279L9.7721 0.968371C8.77708 1.56864 7.95404 2.41582 7.38279 3.42777C6.81153 4.43973 6.51145 5.58212 6.51163 6.74418H7.90698ZM10 1.39535C9.95326 1.39445 9.90715 1.38428 9.86436 1.36544C9.82156 1.3466 9.78293 1.31946 9.7507 1.28558C9.71148 1.24619 9.68492 1.19598 9.67442 1.14139C9.6707 1.11256 9.67256 1.02884 9.7721 0.968371L10.494 2.16279C10.9619 1.88 11.1126 1.36186 11.0577 0.954418C11 0.531163 10.667 0 10 0V1.39535ZM19.0326 10.2279C18.9712 10.3274 18.8874 10.3293 18.8586 10.3256C18.804 10.3151 18.7538 10.2885 18.7144 10.2493C18.6805 10.2171 18.6534 10.1784 18.6346 10.1356C18.6157 10.0928 18.6056 10.0467 18.6047 9.99999H20C20 9.33302 19.4688 8.99999 19.0456 8.94232C18.6381 8.88744 18.12 9.03813 17.8372 9.50604L19.0326 10.2279ZM10 18.6046C8.48979 18.6073 7.00577 18.2103 5.69861 17.4539L4.99908 18.6614C6.5188 19.5409 8.24414 20.0027 10 20V18.6046ZM2.54606 14.3023C1.78953 12.9949 1.39252 11.5105 1.39536 9.99999H1.04657e-05C-0.00253496 11.7555 0.459282 13.4805 1.33861 15L2.54606 14.3023Z" fill="url(#paint0_linear_875_909)"/>
<defs>
<linearGradient id="paint0_linear_875_909" x1="10" y1="0" x2="10" y2="20" gradientUnits="userSpaceOnUse">
<stop stop-color="white" stop-opacity="0.4"/>
<stop offset="1" stop-color="white"/>
</linearGradient>
</defs>
</svg>
