<svg width="20" height="18" viewBox="0 0 20 18" fill="none" xmlns="http://www.w3.org/2000/svg">
<mask id="path-1-outside-1_662_26928" maskUnits="userSpaceOnUse" x="0" y="0" width="20" height="18" fill="black">
<rect fill="white" width="20" height="18"/>
<path d="M18.9406 7.2V10.8H1.02063V7.2H18.9406ZM11.8206 0.359999L11.7806 17.64H8.18063V0.359999H11.8206Z"/>
</mask>
<path d="M18.9406 7.2V10.8H1.02063V7.2H18.9406ZM11.8206 0.359999L11.7806 17.64H8.18063V0.359999H11.8206Z" fill="white"/>
<path d="M18.9406 7.2H19.1406V7H18.9406V7.2ZM18.9406 10.8V11H19.1406V10.8H18.9406ZM1.02063 10.8H0.820625V11H1.02063V10.8ZM1.02063 7.2V7H0.820625V7.2H1.02063ZM11.8206 0.359999L12.0206 0.360462L12.0211 0.159998H11.8206V0.359999ZM11.7806 17.64V17.84H11.9802L11.9806 17.6405L11.7806 17.64ZM8.18063 17.64H7.98063V17.84H8.18063V17.64ZM8.18063 0.359999V0.159998H7.98063V0.359999H8.18063ZM18.9406 7.2H18.7406V10.8H18.9406H19.1406V7.2H18.9406ZM18.9406 10.8V10.6H1.02063V10.8V11H18.9406V10.8ZM1.02063 10.8H1.22063V7.2H1.02063H0.820625V10.8H1.02063ZM1.02063 7.2V7.4H18.9406V7.2V7H1.02063V7.2ZM11.8206 0.359999L11.6206 0.359535L11.5806 17.6395L11.7806 17.64L11.9806 17.6405L12.0206 0.360462L11.8206 0.359999ZM11.7806 17.64V17.44H8.18063V17.64V17.84H11.7806V17.64ZM8.18063 17.64H8.38063V0.359999H8.18063H7.98063V17.64H8.18063ZM8.18063 0.359999V0.559999H11.8206V0.359999V0.159998H8.18063V0.359999Z" fill="white" mask="url(#path-1-outside-1_662_26928)"/>
</svg>
