<svg width="20" height="20" viewBox="0 0 20 20" fill="none" xmlns="http://www.w3.org/2000/svg">
<path d="M12.7584 7.24609C12.4997 7.24609 12.29 7.45577 12.29 7.71448V16.5669C12.29 16.8254 12.4997 17.0353 12.7584 17.0353C13.0171 17.0353 13.2268 16.8254 13.2268 16.5669V7.71448C13.2268 7.45577 13.0171 7.24609 12.7584 7.24609Z" fill="url(#paint0_linear_662_26931)"/>
<path d="M7.23206 7.24609C6.97335 7.24609 6.76367 7.45577 6.76367 7.71448V16.5669C6.76367 16.8254 6.97335 17.0353 7.23206 17.0353C7.49076 17.0353 7.70044 16.8254 7.70044 16.5669V7.71448C7.70044 7.45577 7.49076 7.24609 7.23206 7.24609Z" fill="url(#paint1_linear_662_26931)"/>
<path d="M3.20333 5.95419V17.4942C3.20333 18.1762 3.45344 18.8168 3.89036 19.2764C4.32526 19.7373 4.9305 19.9989 5.56392 20H14.4259C15.0595 19.9989 15.6647 19.7373 16.0994 19.2764C16.5364 18.8168 16.7865 18.1762 16.7865 17.4942V5.95419C17.655 5.72366 18.2178 4.8846 18.1016 3.99339C17.9852 3.10236 17.2261 2.43583 16.3274 2.43565H13.9293V1.85017C13.9321 1.35782 13.7374 0.885049 13.3889 0.537238C13.0403 0.18961 12.5668 -0.00396362 12.0745 6.15416e-05H7.91535C7.423 -0.00396362 6.94949 0.18961 6.60095 0.537238C6.2524 0.885049 6.05773 1.35782 6.06048 1.85017V2.43565H3.66239C2.76368 2.43583 2.00456 3.10236 1.8882 3.99339C1.77202 4.8846 2.33481 5.72366 3.20333 5.95419ZM14.4259 19.0632H5.56392C4.76309 19.0632 4.1401 18.3753 4.1401 17.4942V5.99536H15.8497V17.4942C15.8497 18.3753 15.2267 19.0632 14.4259 19.0632ZM6.99725 1.85017C6.99413 1.60628 7.09001 1.37154 7.26309 1.19938C7.43599 1.02721 7.67128 0.932619 7.91535 0.936827H12.0745C12.3185 0.932619 12.5538 1.02721 12.7267 1.19938C12.8998 1.37136 12.9957 1.60628 12.9926 1.85017V2.43565H6.99725V1.85017ZM3.66239 3.37242H16.3274C16.7931 3.37242 17.1705 3.74987 17.1705 4.21551C17.1705 4.68114 16.7931 5.05859 16.3274 5.05859H3.66239C3.19675 5.05859 2.8193 4.68114 2.8193 4.21551C2.8193 3.74987 3.19675 3.37242 3.66239 3.37242Z" fill="url(#paint2_linear_662_26931)"/>
<path d="M9.99573 7.24609C9.73702 7.24609 9.52734 7.45577 9.52734 7.71448V16.5669C9.52734 16.8254 9.73702 17.0353 9.99573 17.0353C10.2544 17.0353 10.4641 16.8254 10.4641 16.5669V7.71448C10.4641 7.45577 10.2544 7.24609 9.99573 7.24609Z" fill="url(#paint3_linear_662_26931)"/>
<defs>
<linearGradient id="paint0_linear_662_26931" x1="12.7584" y1="7.24609" x2="12.7584" y2="17.0353" gradientUnits="userSpaceOnUse">
<stop stop-color="white" stop-opacity="0.4"/>
<stop offset="1" stop-color="white"/>
</linearGradient>
<linearGradient id="paint1_linear_662_26931" x1="7.23206" y1="7.24609" x2="7.23206" y2="17.0353" gradientUnits="userSpaceOnUse">
<stop stop-color="white" stop-opacity="0.4"/>
<stop offset="1" stop-color="white"/>
</linearGradient>
<linearGradient id="paint2_linear_662_26931" x1="9.9949" y1="0" x2="9.9949" y2="20" gradientUnits="userSpaceOnUse">
<stop stop-color="white" stop-opacity="0.4"/>
<stop offset="1" stop-color="white"/>
</linearGradient>
<linearGradient id="paint3_linear_662_26931" x1="9.99573" y1="7.24609" x2="9.99573" y2="17.0353" gradientUnits="userSpaceOnUse">
<stop stop-color="white" stop-opacity="0.4"/>
<stop offset="1" stop-color="white"/>
</linearGradient>
</defs>
</svg>
